<svg xmlns="http://www.w3.org/2000/svg" xmlns:xlink="http://www.w3.org/1999/xlink" id="ei-sprite" style="display:none">
<symbol id='twitter-icon' viewBox='0 0 50 50'>
  <path d="M48 10.602c-1.733.788-3.466 1.26-5.514 1.576 1.89-1.26 3.466-2.993 4.254-5.2a21.558 21.558 0 0 1-5.987 2.364C39.02 7.452 36.5 6.35 33.823 6.35c-5.2 0-9.61 4.252-9.61 9.61 0 .786.157 1.416.314 2.204C16.65 17.85 9.562 13.91 4.837 8.24c-.79 1.102-1.262 2.678-1.262 4.41 0 3.31 1.733 6.302 4.254 7.877-1.577 0-2.994-.472-4.255-1.26v.157c0 4.57 3.31 8.507 7.72 9.295-.788.157-1.576.314-2.52.314-.63 0-1.26 0-1.734-.157 1.26 3.78 4.727 6.616 8.98 6.616-3.308 2.52-7.404 4.096-11.815 4.096-.787 0-1.575 0-2.205-.16C5.78 42.426 10.822 44 16.178 44c17.486 0 27.096-14.493 27.096-27.096v-1.26c1.89-1.418 3.466-2.994 4.726-5.042z"/>
</symbol>
<symbol id='instagram-icon' viewBox='0 0 50 50'>
  <path d="M7.313 2.013c-3.006 0-5.304 2.298-5.304 5.304v35.37c0 3.006 2.296 5.304 5.302 5.304h35.37c3.006 0 5.304-2.296 5.304-5.302V7.318c0-3.007-2.298-5.305-5.304-5.305H7.312zm28.295 5.304h5.307c1.06 0 1.768.707 1.768 1.768v5.307c0 1.06-.707 1.768-1.768 1.768h-5.307c-1.06 0-1.768-.707-1.768-1.768V9.085c0-1.06.707-1.768 1.768-1.768zm-10.61 8.843c4.953 0 8.842 3.89 8.842 8.84 0 4.952-3.89 8.844-8.84 8.844-4.952 0-8.844-3.892-8.844-8.843 0-4.95 3.892-8.84 8.843-8.84zM7.314 21.465h4.068c-.353 1.06-.528 2.298-.528 3.536 0 7.783 6.366 14.15 14.147 14.15 7.78 0 14.147-6.367 14.147-14.148 0-1.237-.178-2.474-.53-3.535h4.067v19.45c0 1.062-.707 1.772-1.768 1.772H9.086c-1.063 0-1.773-.71-1.773-1.77V21.463z" clip-rule="evenodd" fill-rule="evenodd"/>
</symbol>
<symbol id='external-link-icon' viewBox='0 0 50 50'>
  <path d="M45.187 2.488l2.323 2.325L22.884 29.44l-2.323-2.324z"/><path d="M48 18.43h-3.286V5.285H31.57V2H48zM39.786 48H6.93C4.135 48 2 45.864 2 43.07V10.215C2 7.42 4.136 5.286 6.93 5.286H25V8.57H6.93c-.987 0-1.644.66-1.644 1.644V43.07c0 .987.657 1.644 1.643 1.644h32.856c.985 0 1.643-.657 1.643-1.643V25h3.284v18.07c0 2.794-2.135 4.93-4.928 4.93z"/>
</symbol>
<symbol id='close-icon' viewBox='0 0 212.982 212.982'>
    <path d="M45.63 2L48 4.37 4.37 48 2 45.628z"/><path d="M4.37 2L48 45.627 45.63 48 2 4.373z"/>
</symbol>

</svg>
